<svg width="177" height="29" viewBox="0 0 177 29" fill="none" xmlns="http://www.w3.org/2000/svg">
<path d="M14 0.999999C12.1615 0.999999 10.341 1.36212 8.64243 2.06569C6.94387 2.76925 5.40052 3.80048 4.1005 5.1005C2.80048 6.40052 1.76925 7.94387 1.06569 9.64243C0.36212 11.341 -1.60727e-07 13.1615 0 15L14 15L14 0.999999Z" fill="#0F0F0F"/>
<path d="M14 29C12.1615 29 10.341 28.6379 8.64243 27.9343C6.94387 27.2307 5.40052 26.1995 4.1005 24.8995C2.80048 23.5995 1.76925 22.0561 1.06569 20.3576C0.362121 18.659 0 16.8385 0 15L14 15L14 29Z" fill="#0F0F0F"/>
<path d="M28 29C26.1615 29 24.341 28.6379 22.6424 27.9343C20.9439 27.2307 19.4005 26.1995 18.1005 24.8995C16.8005 23.5995 15.7693 22.0561 15.0657 20.3576C14.3621 18.659 14 16.8385 14 15L28 15L28 29Z" fill="#0F0F0F"/>
<path d="M42 29C40.1615 29 38.341 28.6379 36.6424 27.9343C34.9439 27.2307 33.4005 26.1995 32.1005 24.8995C30.8005 23.5995 29.7693 22.0561 29.0657 20.3576C28.3621 18.659 28 16.8385 28 15L42 15L42 29Z" fill="#0F0F0F"/>
<path d="M28 1C29.8385 1 31.659 1.36212 33.3576 2.06569C35.0561 2.76925 36.5995 3.80048 37.8995 5.10051C39.1995 6.40053 40.2307 7.94387 40.9343 9.64243C41.6379 11.341 42 13.1615 42 15L28 15L28 1Z" fill="#0F0F0F"/>
<path d="M14 1C15.8385 1 17.659 1.36212 19.3576 2.06569C21.0561 2.76925 22.5995 3.80048 23.8995 5.10051C25.1995 6.40053 26.2307 7.94387 26.9343 9.64243C27.6379 11.341 28 13.1615 28 15L14 15L14 1Z" fill="#0F0F0F"/>
<path d="M63.314 28.88C60.5527 28.88 58.1207 28.2847 56.018 27.094C53.9407 25.878 52.3193 24.206 51.154 22.078C49.9887 19.95 49.406 17.4927 49.406 14.706C49.406 11.9447 49.9887 9.52533 51.154 7.448C52.3193 5.34533 53.928 3.71133 55.98 2.546C58.0573 1.35533 60.4133 0.759999 63.048 0.759999C65.7333 0.759999 68.102 1.35533 70.154 2.546C72.2313 3.71133 73.8527 5.34533 75.018 7.448C76.1833 9.55067 76.766 11.9827 76.766 14.744C76.766 16.5933 76.462 18.3413 75.854 19.988C75.246 21.6093 74.3087 22.99 73.042 24.13C71.7753 25.27 70.1287 26.0933 68.102 26.6L63.314 28.88ZM63.048 25.042C64.7707 25.042 66.278 24.624 67.57 23.788C68.8873 22.9267 69.9133 21.7107 70.648 20.14C71.3827 18.5693 71.75 16.7453 71.75 14.668C71.75 12.692 71.3827 10.9693 70.648 9.5C69.9387 8.00533 68.9253 6.85267 67.608 6.042C66.316 5.206 64.796 4.788 63.048 4.788C61.3253 4.788 59.8053 5.206 58.488 6.042C57.196 6.85267 56.1953 7.99267 55.486 9.462C54.7767 10.9313 54.422 12.6667 54.422 14.668C54.422 16.7707 54.7767 18.6073 55.486 20.178C56.2207 21.7233 57.234 22.9267 58.526 23.788C59.8433 24.624 61.3507 25.042 63.048 25.042ZM63.314 28.88L63.086 25.46L78.058 24.586V28.5C76.462 28.5 75.056 28.5127 73.84 28.538C72.6493 28.5887 71.522 28.6393 70.458 28.69C69.4193 28.7407 68.33 28.7787 67.19 28.804C66.05 28.8547 64.758 28.88 63.314 28.88ZM86.3655 28.88C85.0228 28.88 83.8575 28.6013 82.8695 28.044C81.9068 27.4613 81.1595 26.676 80.6275 25.688C80.1208 24.7 79.8675 23.5853 79.8675 22.344V9.12H84.6555V21.356C84.6555 22.5467 84.9468 23.446 85.5295 24.054C86.1375 24.662 86.9861 24.966 88.0755 24.966C89.0635 24.966 89.9248 24.738 90.6595 24.282C91.4195 23.826 92.0148 23.1927 92.4455 22.382C92.9015 21.546 93.1295 20.6087 93.1295 19.57L93.6235 24.206C92.9901 25.6247 92.0401 26.7647 90.7735 27.626C89.5321 28.462 88.0628 28.88 86.3655 28.88ZM93.2815 28.5V23.94H93.1295V9.12H97.9555V28.5H93.2815ZM113.528 28.5C113.401 27.9933 113.3 27.436 113.224 26.828C113.173 26.22 113.148 25.4853 113.148 24.624H112.996V15.428C112.996 14.4147 112.704 13.6547 112.122 13.148C111.564 12.616 110.703 12.35 109.538 12.35C108.398 12.35 107.486 12.5653 106.802 12.996C106.143 13.4013 105.738 13.9967 105.586 14.782H100.988C101.19 12.9833 102.052 11.5267 103.572 10.412C105.092 9.29733 107.131 8.74 109.69 8.74C112.35 8.74 114.364 9.348 115.732 10.564C117.1 11.7547 117.784 13.5153 117.784 15.846V24.624C117.784 25.232 117.822 25.8527 117.898 26.486C117.999 27.1193 118.138 27.7907 118.316 28.5H113.528ZM106.802 28.88C104.851 28.88 103.293 28.3987 102.128 27.436C100.988 26.448 100.418 25.1307 100.418 23.484C100.418 21.7107 101.064 20.3047 102.356 19.266C103.648 18.2273 105.472 17.5307 107.828 17.176L113.87 16.264V19.304L108.626 20.102C107.486 20.2793 106.624 20.596 106.042 21.052C105.484 21.508 105.206 22.1413 105.206 22.952C105.206 23.6867 105.472 24.2567 106.004 24.662C106.536 25.042 107.27 25.232 108.208 25.232C109.576 25.232 110.716 24.89 111.628 24.206C112.54 23.522 112.996 22.686 112.996 21.698L113.528 24.624C113.021 26.0173 112.185 27.0813 111.02 27.816C109.88 28.5253 108.474 28.88 106.802 28.88ZM121.493 28.5V9.12H126.167V13.68H126.281V28.5H121.493ZM135.097 28.5V16.264C135.097 15.0733 134.793 14.174 134.185 13.566C133.577 12.958 132.691 12.654 131.525 12.654C130.512 12.654 129.6 12.882 128.789 13.338C128.004 13.794 127.383 14.4273 126.927 15.238C126.497 16.0487 126.281 16.986 126.281 18.05L125.787 13.414C126.446 11.9953 127.409 10.868 128.675 10.032C129.942 9.17067 131.462 8.74 133.235 8.74C135.338 8.74 136.972 9.33533 138.137 10.526C139.328 11.7167 139.923 13.3 139.923 15.276V28.5H135.097ZM151.618 28.88C149.236 28.88 147.476 28.3227 146.336 27.208C145.221 26.068 144.664 24.3707 144.664 22.116V4.712L149.49 2.926V22.23C149.49 23.1673 149.743 23.864 150.25 24.32C150.756 24.776 151.554 25.004 152.644 25.004C153.074 25.004 153.454 24.9787 153.784 24.928C154.138 24.852 154.468 24.7633 154.772 24.662V28.386C154.468 28.538 154.037 28.652 153.48 28.728C152.922 28.8293 152.302 28.88 151.618 28.88ZM140.94 12.882V9.12H154.772V12.882H140.94ZM165.435 28.88C163.383 28.88 161.572 28.4493 160.001 27.588C158.456 26.7267 157.253 25.536 156.391 24.016C155.53 22.4707 155.099 20.71 155.099 18.734C155.099 16.758 155.53 15.0227 156.391 13.528C157.253 12.0333 158.456 10.868 160.001 10.032C161.572 9.17067 163.383 8.74 165.435 8.74C167.513 8.74 169.324 9.17067 170.869 10.032C172.415 10.868 173.618 12.0333 174.479 13.528C175.341 15.0227 175.771 16.758 175.771 18.734C175.771 20.71 175.328 22.4707 174.441 24.016C173.58 25.536 172.377 26.7267 170.831 27.588C169.286 28.4493 167.487 28.88 165.435 28.88ZM165.435 25.042C166.449 25.042 167.361 24.7887 168.171 24.282C168.982 23.75 169.615 23.0153 170.071 22.078C170.527 21.1153 170.755 19.988 170.755 18.696C170.755 16.796 170.249 15.3013 169.235 14.212C168.247 13.1227 166.981 12.578 165.435 12.578C163.89 12.578 162.611 13.1227 161.597 14.212C160.584 15.3013 160.077 16.796 160.077 18.696C160.077 19.988 160.305 21.1153 160.761 22.078C161.243 23.0153 161.876 23.75 162.661 24.282C163.472 24.7887 164.397 25.042 165.435 25.042Z" fill="#0F0F0F"/>
</svg>
