<svg width="327" height="54" viewBox="0 0 327 54" fill="none" xmlns="http://www.w3.org/2000/svg">
<path d="M26 1C22.5856 1 19.2047 1.67251 16.0502 2.97913C12.8958 4.28576 10.0295 6.2009 7.61522 8.61522C5.2009 11.0295 3.28575 13.8958 1.97913 17.0502C0.672509 20.2047 -2.98493e-07 23.5856 0 27L26 27L26 1Z" fill="white"/>
<path d="M26 53C22.5856 53 19.2047 52.3275 16.0502 51.0209C12.8958 49.7142 10.0295 47.7991 7.61522 45.3848C5.2009 42.9705 3.28575 40.1042 1.97913 36.9498C0.67251 33.7953 0 30.4144 0 27L26 27L26 53Z" fill="white"/>
<path d="M52 53C48.5856 53 45.2047 52.3275 42.0502 51.0209C38.8958 49.7142 36.0295 47.7991 33.6152 45.3848C31.2009 42.9705 29.2858 40.1042 27.9791 36.9498C26.6725 33.7953 26 30.4144 26 27L52 27L52 53Z" fill="white"/>
<path d="M78 53C74.5856 53 71.2047 52.3275 68.0502 51.0209C64.8958 49.7142 62.0295 47.7991 59.6152 45.3848C57.2009 42.9705 55.2858 40.1042 53.9791 36.9498C52.6725 33.7953 52 30.4144 52 27L78 27L78 53Z" fill="white"/>
<path d="M52 1C55.4144 1 58.7953 1.67251 61.9498 2.97914C65.1042 4.28576 67.9705 6.2009 70.3848 8.61523C72.7991 11.0295 74.7142 13.8958 76.0209 17.0502C77.3275 20.2047 78 23.5856 78 27L52 27L52 1Z" fill="white"/>
<path d="M26 1C29.4144 1 32.7953 1.67251 35.9498 2.97914C39.1042 4.28576 41.9705 6.2009 44.3848 8.61523C46.7991 11.0295 48.7142 13.8958 50.0209 17.0502C51.3275 20.2047 52 23.5856 52 27L26 27L26 1Z" fill="white"/>
<path d="M117.581 53.2057C112.453 53.2057 107.936 52.1001 104.031 49.8889C100.173 47.6306 97.1622 44.5254 94.9981 40.5734C92.8339 36.6214 91.7518 32.0578 91.7518 26.8826C91.7518 21.7544 92.8339 17.2613 94.9981 13.4034C97.1622 9.49848 100.15 6.46391 103.961 4.29972C107.819 2.08848 112.194 0.982863 117.087 0.982863C122.074 0.982863 126.473 2.08848 130.284 4.29972C134.142 6.46391 137.153 9.49848 139.317 13.4034C141.481 17.3084 142.563 21.825 142.563 26.9531C142.563 30.3876 141.999 33.6339 140.869 36.692C139.74 39.703 138 42.2671 135.647 44.3843C133.295 46.5014 130.237 48.0305 126.473 48.9714L117.581 53.2057ZM117.087 46.078C120.286 46.078 123.085 45.3017 125.485 43.7491C127.931 42.1495 129.837 39.8912 131.201 36.9743C132.566 34.0573 133.248 30.6699 133.248 26.812C133.248 23.1423 132.566 19.9431 131.201 17.2143C129.884 14.4385 128.002 12.2978 125.555 10.7923C123.156 9.23972 120.333 8.46343 117.087 8.46343C113.888 8.46343 111.065 9.23972 108.618 10.7923C106.219 12.2978 104.361 14.415 103.043 17.1437C101.726 19.8725 101.067 23.0952 101.067 26.812C101.067 30.717 101.726 34.1279 103.043 37.0449C104.408 39.9148 106.289 42.1495 108.689 43.7491C111.135 45.3017 113.935 46.078 117.087 46.078ZM117.581 53.2057L117.157 46.8543L144.963 45.2311V52.5C141.999 52.5 139.387 52.5235 137.129 52.5706C134.918 52.6647 132.824 52.7588 130.848 52.8529C128.919 52.947 126.896 53.0175 124.779 53.0646C122.662 53.1587 120.263 53.2057 117.581 53.2057ZM160.391 53.2057C157.897 53.2057 155.733 52.6882 153.898 51.6531C152.11 50.571 150.722 49.1126 149.734 47.2777C148.794 45.4429 148.323 43.3728 148.323 41.0674V16.5086H157.215V39.2326C157.215 41.4438 157.756 43.114 158.838 44.2431C159.967 45.3723 161.543 45.9369 163.566 45.9369C165.401 45.9369 167.001 45.5134 168.365 44.6666C169.777 43.8197 170.882 42.6435 171.682 41.138C172.529 39.5854 172.952 37.8447 172.952 35.9157L173.87 44.5254C172.694 47.1601 170.929 49.2772 168.577 50.8769C166.272 52.4294 163.543 53.2057 160.391 53.2057ZM173.235 52.5V44.0314H172.952V16.5086H181.915V52.5H173.235ZM210.835 52.5C210.6 51.559 210.412 50.524 210.27 49.3949C210.176 48.2657 210.129 46.9013 210.129 45.3017H209.847V28.2234C209.847 26.3415 209.306 24.9301 208.224 23.9891C207.189 23.0011 205.589 22.5071 203.425 22.5071C201.308 22.5071 199.614 22.9071 198.344 23.7069C197.121 24.4596 196.368 25.5652 196.086 27.0237H187.546C187.923 23.6833 189.522 20.9781 192.345 18.908C195.168 16.8379 198.955 15.8029 203.707 15.8029C208.647 15.8029 212.388 16.932 214.928 19.1903C217.469 21.4015 218.739 24.6713 218.739 28.9997V45.3017C218.739 46.4309 218.81 47.5835 218.951 48.7597C219.139 49.9359 219.398 51.1827 219.727 52.5H210.835ZM198.344 53.2057C194.721 53.2057 191.828 52.3118 189.664 50.524C187.546 48.6891 186.488 46.2427 186.488 43.1846C186.488 39.8912 187.688 37.2801 190.087 35.3511C192.486 33.4222 195.874 32.1284 200.249 31.4697L211.47 29.776V35.4217L201.731 36.9037C199.614 37.233 198.015 37.8211 196.932 38.668C195.897 39.5149 195.38 40.691 195.38 42.1966C195.38 43.561 195.874 44.6195 196.862 45.3723C197.85 46.078 199.214 46.4309 200.955 46.4309C203.496 46.4309 205.613 45.7957 207.306 44.5254C209 43.2551 209.847 41.7026 209.847 39.8677L210.835 45.3017C209.894 47.8893 208.341 49.8653 206.177 51.2297C204.06 52.547 201.449 53.2057 198.344 53.2057ZM225.628 52.5V16.5086H234.308V24.9771H234.52V52.5H225.628ZM250.893 52.5V29.776C250.893 27.5648 250.328 25.8946 249.199 24.7654C248.07 23.6363 246.423 23.0717 244.259 23.0717C242.377 23.0717 240.683 23.4951 239.178 24.342C237.719 25.1889 236.567 26.3651 235.72 27.8706C234.92 29.3761 234.52 31.1169 234.52 33.0929L233.603 24.4831C234.826 21.8485 236.614 19.7549 238.966 18.2023C241.318 16.6027 244.141 15.8029 247.435 15.8029C251.339 15.8029 254.374 16.9085 256.538 19.1197C258.749 21.331 259.855 24.2714 259.855 27.9411V52.5H250.893ZM281.573 53.2057C277.151 53.2057 273.881 52.1707 271.764 50.1006C269.694 47.9834 268.659 44.8312 268.659 40.644V8.32229L277.621 5.00543V40.8557C277.621 42.5965 278.092 43.8903 279.033 44.7371C279.974 45.584 281.456 46.0074 283.479 46.0074C284.279 46.0074 284.984 45.9604 285.596 45.8663C286.255 45.7251 286.866 45.5605 287.431 45.3723V52.2883C286.866 52.5706 286.066 52.7823 285.031 52.9234C283.996 53.1116 282.844 53.2057 281.573 53.2057ZM261.743 23.4951V16.5086H287.431V23.4951H261.743ZM307.235 53.2057C303.424 53.2057 300.06 52.4059 297.143 50.8063C294.273 49.2067 292.039 46.9954 290.439 44.1726C288.839 41.3027 288.04 38.0329 288.04 34.3631C288.04 30.6934 288.839 27.4707 290.439 24.6949C292.039 21.9191 294.273 19.7549 297.143 18.2023C300.06 16.6027 303.424 15.8029 307.235 15.8029C311.093 15.8029 314.457 16.6027 317.327 18.2023C320.197 19.7549 322.431 21.9191 324.031 24.6949C325.631 27.4707 326.43 30.6934 326.43 34.3631C326.43 38.0329 325.607 41.3027 323.96 44.1726C322.361 46.9954 320.126 49.2067 317.256 50.8063C314.386 52.4059 311.046 53.2057 307.235 53.2057ZM307.235 46.078C309.117 46.078 310.811 45.6075 312.316 44.6666C313.822 43.6786 314.998 42.3142 315.845 40.5734C316.692 38.7856 317.115 36.692 317.115 34.2926C317.115 30.764 316.174 27.9882 314.292 25.9651C312.457 23.9421 310.105 22.9306 307.235 22.9306C304.365 22.9306 301.989 23.9421 300.107 25.9651C298.225 27.9882 297.284 30.764 297.284 34.2926C297.284 36.692 297.708 38.7856 298.555 40.5734C299.449 42.3142 300.625 43.6786 302.083 44.6666C303.589 45.6075 305.306 46.078 307.235 46.078Z" fill="white"/>
</svg>
