<svg width="1920" height="386" viewBox="0 0 1920 386" fill="none" xmlns="http://www.w3.org/2000/svg">
<path d="M168.425 452C124.066 452 84.9969 442.431 51.2186 423.292C17.8472 403.746 -8.1987 376.87 -26.9192 342.665C-45.6397 308.459 -55 268.96 -55 224.168C-55 179.782 -45.6397 140.894 -26.9192 107.503C-8.1987 73.7045 17.6438 47.4396 50.6081 28.7081C83.9795 9.56937 121.828 0 164.152 0C207.291 0 245.342 9.56937 278.307 28.7081C311.678 47.4396 337.724 73.7045 356.444 107.503C375.165 141.301 384.525 180.393 384.525 224.778C384.525 254.505 379.642 282.602 369.874 309.07C360.107 335.132 345.049 357.324 324.701 375.649C304.353 393.973 277.9 407.207 245.342 415.351L168.425 452ZM164.152 390.308C191.826 390.308 216.041 383.589 236.796 370.151C257.958 356.306 274.44 336.76 286.242 311.513C298.045 286.267 303.946 256.948 303.946 223.557C303.946 191.795 298.045 164.105 286.242 140.486C274.847 116.461 258.569 97.9333 237.406 84.9027C216.651 71.4649 192.233 64.7459 164.152 64.7459C136.478 64.7459 112.06 71.4649 90.898 84.9027C70.1426 97.9333 54.0674 116.258 42.6723 139.876C31.2772 163.494 25.5796 191.387 25.5796 223.557C25.5796 257.355 31.2772 286.877 42.6723 312.124C54.4743 336.964 70.7531 356.306 91.5084 370.151C112.671 383.589 136.885 390.308 164.152 390.308ZM168.425 452L164.763 397.027L405.281 382.978V445.892C379.642 445.892 357.055 446.095 337.52 446.503C318.393 447.317 300.283 448.132 283.19 448.946C266.505 449.76 249.005 450.371 230.691 450.778C212.378 451.593 191.622 452 168.425 452Z" fill="white"/>
<path d="M538.736 452C517.167 452 498.446 447.521 482.574 438.562C467.109 429.196 455.104 416.573 446.558 400.692C438.418 384.811 434.349 366.894 434.349 346.941V134.378H511.266V331.059C511.266 350.198 515.946 364.654 525.306 374.427C535.073 384.2 548.707 389.086 566.206 389.086C582.078 389.086 595.915 385.422 607.717 378.092C619.926 370.762 629.49 360.582 636.408 347.551C643.734 334.114 647.396 319.047 647.396 302.351L655.332 376.87C645.158 399.674 629.897 417.998 609.548 431.843C589.607 445.281 566.003 452 538.736 452ZM649.838 445.892V372.595H647.396V134.378H724.924V445.892H649.838Z" fill="white"/>
<path d="M975.085 445.892C973.05 437.748 971.422 428.789 970.201 419.016C969.387 409.243 968.98 397.434 968.98 383.589H966.539V235.773C966.539 219.485 961.858 207.268 952.498 199.124C943.545 190.573 929.708 186.297 910.987 186.297C892.674 186.297 878.023 189.759 867.035 196.681C856.454 203.196 849.942 212.766 847.5 225.389H773.636C776.891 196.477 790.728 173.063 815.146 155.146C839.565 137.229 872.325 128.27 913.429 128.27C956.161 128.27 988.515 138.043 1010.49 157.589C1032.47 176.728 1043.46 205.029 1043.46 242.492V383.589C1043.46 393.362 1044.07 403.339 1045.29 413.519C1046.91 423.699 1049.15 434.49 1052 445.892H975.085ZM867.035 452C835.698 452 810.67 444.263 791.949 428.789C773.636 412.908 764.479 391.733 764.479 365.265C764.479 336.76 774.857 314.16 795.612 297.465C816.367 280.769 845.669 269.571 883.517 263.87L980.579 249.211V298.076L896.337 310.903C878.023 313.753 864.186 318.843 854.826 326.173C845.872 333.503 841.396 343.683 841.396 356.714C841.396 368.523 845.669 377.685 854.215 384.2C862.762 390.308 874.564 393.362 889.622 393.362C911.598 393.362 929.911 387.865 944.562 376.87C959.213 365.876 966.539 352.438 966.539 336.557L975.085 383.589C966.945 405.986 953.516 423.088 934.795 434.897C916.481 446.299 893.895 452 867.035 452Z" fill="white"/>
<path d="M1103.05 445.892V134.378H1178.13V207.676H1179.96V445.892H1103.05ZM1321.59 445.892V249.211C1321.59 230.072 1316.7 215.616 1306.94 205.843C1297.17 196.07 1282.93 191.184 1264.21 191.184C1247.93 191.184 1233.28 194.849 1220.25 202.178C1207.64 209.508 1197.67 219.688 1190.34 232.719C1183.42 245.75 1179.96 260.816 1179.96 277.919L1172.03 203.4C1182.61 180.596 1198.07 162.476 1218.42 149.038C1238.77 135.193 1263.19 128.27 1291.68 128.27C1325.45 128.27 1351.7 137.84 1370.42 156.978C1389.55 176.117 1399.11 201.568 1399.11 233.33V445.892H1321.59Z" fill="white"/>
<path d="M1586.98 452C1548.73 452 1520.44 443.041 1502.13 425.124C1484.22 406.8 1475.27 379.517 1475.27 343.276V63.5243L1552.8 34.8162V345.108C1552.8 360.175 1556.87 371.373 1565.01 378.703C1573.14 386.032 1585.96 389.697 1603.46 389.697C1610.38 389.697 1616.49 389.29 1621.78 388.476C1627.47 387.254 1632.77 385.829 1637.65 384.2V444.059C1632.77 446.503 1625.85 448.335 1616.89 449.557C1607.94 451.186 1597.97 452 1586.98 452ZM1415.44 194.849V134.378H1637.65V194.849H1415.44Z" fill="white"/>
<path d="M1808.96 452C1775.99 452 1746.89 445.077 1721.66 431.232C1696.84 417.387 1677.51 398.249 1663.67 373.816C1649.83 348.977 1642.91 320.676 1642.91 288.914C1642.91 257.151 1649.83 229.258 1663.67 205.232C1677.51 181.207 1696.84 162.476 1721.66 149.038C1746.89 135.193 1775.99 128.27 1808.96 128.27C1842.33 128.27 1871.43 135.193 1896.25 149.038C1921.08 162.476 1940.41 181.207 1954.24 205.232C1968.08 229.258 1975 257.151 1975 288.914C1975 320.676 1967.88 348.977 1953.63 373.816C1939.8 398.249 1920.47 417.387 1895.64 431.232C1870.82 445.077 1841.92 452 1808.96 452ZM1808.96 390.308C1825.24 390.308 1839.89 386.236 1852.91 378.092C1865.93 369.541 1876.11 357.732 1883.43 342.665C1890.76 327.191 1894.42 309.07 1894.42 288.303C1894.42 257.762 1886.28 233.737 1870 216.227C1854.13 198.717 1833.78 189.962 1808.96 189.962C1784.13 189.962 1763.58 198.717 1747.3 216.227C1731.02 233.737 1722.88 257.762 1722.88 288.303C1722.88 309.07 1726.55 327.191 1733.87 342.665C1741.6 357.732 1751.78 369.541 1764.39 378.092C1777.42 386.236 1792.27 390.308 1808.96 390.308Z" fill="white"/>
</svg>
