<svg width="1604" height="280" viewBox="0 0 1604 280" fill="none" xmlns="http://www.w3.org/2000/svg">
<g clip-path="url(#clip0_793_3514)">
<path d="M176.539 357C141.488 357 110.618 349.442 83.9284 334.326C57.5601 318.888 36.9799 297.661 22.188 270.645C7.39599 243.628 0 212.431 0 177.053C0 141.996 7.39599 111.281 22.188 84.9081C36.9799 58.2135 57.3993 37.4689 83.4461 22.6743C109.814 7.55811 139.72 0 173.163 0C207.248 0 237.315 7.55811 263.362 22.6743C289.73 37.4689 310.31 58.2135 325.102 84.9081C339.894 111.603 347.29 142.478 347.29 177.535C347.29 201.014 343.431 223.205 335.714 244.111C327.996 264.695 316.098 282.223 300.02 296.696C283.942 311.169 263.04 321.622 237.315 328.054L176.539 357ZM173.163 308.274C195.029 308.274 214.162 302.968 230.562 292.354C247.283 281.419 260.307 265.981 269.632 246.041C278.957 226.1 283.62 202.943 283.62 176.57C283.62 151.484 278.957 129.614 269.632 110.959C260.628 91.9838 247.766 77.35 231.044 67.0581C214.644 56.4446 195.351 51.1378 173.163 51.1378C151.296 51.1378 132.002 56.4446 115.281 67.0581C98.8812 77.35 86.1794 91.823 77.1755 110.477C68.1717 129.131 63.6698 151.162 63.6698 176.57C63.6698 203.265 68.1717 226.582 77.1755 246.523C86.5009 266.142 99.3635 281.419 115.763 292.354C132.485 302.968 151.618 308.274 173.163 308.274ZM176.539 357L173.645 313.581L363.69 302.485V352.176C343.431 352.176 325.584 352.336 310.149 352.658C295.036 353.301 280.726 353.945 267.22 354.588C254.036 355.231 240.209 355.714 225.738 356.035C211.268 356.678 194.868 357 176.539 357Z" fill="white"/>
<path d="M469.139 357C452.096 357 437.304 353.462 424.763 346.386C412.544 338.989 403.058 329.019 396.305 316.476C389.873 303.932 386.658 289.781 386.658 274.022V106.135H447.433V261.478C447.433 276.595 451.131 288.012 458.527 295.731C466.245 303.45 477.017 307.309 490.845 307.309C503.386 307.309 514.319 304.415 523.644 298.626C533.291 292.836 540.848 284.796 546.315 274.504C552.103 263.891 554.997 251.991 554.997 238.804L561.267 297.661C553.228 315.672 541.17 330.145 525.091 341.08C509.335 351.693 490.684 357 469.139 357ZM556.926 352.176V294.284H554.997V106.135H616.255V352.176H556.926Z" fill="white"/>
<path d="M813.919 352.176C812.311 345.743 811.025 338.668 810.061 330.949C809.417 323.23 809.096 313.903 809.096 302.968H807.166V186.219C807.166 173.354 803.468 163.705 796.072 157.273C788.998 150.519 778.065 147.142 763.273 147.142C748.802 147.142 737.226 149.876 728.544 155.343C720.183 160.489 715.038 168.047 713.109 178.018H654.745C657.317 155.182 668.25 136.689 687.544 122.538C706.838 108.386 732.724 101.311 765.202 101.311C798.967 101.311 824.531 109.03 841.895 124.468C859.26 139.584 867.942 161.936 867.942 191.526V302.968C867.942 310.686 868.424 318.566 869.389 326.607C870.675 334.647 872.444 343.17 874.695 352.176H813.919ZM728.544 357C703.783 357 684.007 350.889 669.215 338.668C654.745 326.124 647.51 309.4 647.51 288.495C647.51 265.981 655.709 248.131 672.109 234.945C688.509 221.758 711.662 212.914 741.567 208.411L818.26 196.832V235.427L751.697 245.558C737.226 247.809 726.293 251.83 718.897 257.619C711.822 263.408 708.285 271.449 708.285 281.741C708.285 291.068 711.662 298.304 718.415 303.45C725.167 308.274 734.493 310.686 746.391 310.686C763.755 310.686 778.226 306.345 789.802 297.661C801.378 288.977 807.166 278.363 807.166 265.82L813.919 302.968C807.488 320.657 796.876 334.165 782.084 343.492C767.614 352.497 749.767 357 728.544 357Z" fill="white"/>
<path d="M915.028 352.176V106.135H974.356V164.027H975.803V352.176H915.028ZM1087.71 352.176V196.832C1087.71 181.716 1083.85 170.299 1076.13 162.58C1068.41 154.861 1057.16 151.001 1042.37 151.001C1029.5 151.001 1017.93 153.896 1007.64 159.685C997.67 165.474 989.791 173.515 984.003 183.807C978.536 194.099 975.803 205.999 975.803 219.507L969.533 160.65C977.893 142.639 990.113 128.327 1006.19 117.714C1022.27 106.778 1041.56 101.311 1064.07 101.311C1090.76 101.311 1111.5 108.869 1126.3 123.985C1141.41 139.101 1148.97 159.203 1148.97 184.289V352.176H1087.71Z" fill="white"/>
<path d="M1297.41 357C1267.18 357 1244.83 349.924 1230.36 335.773C1216.21 321.3 1209.14 299.751 1209.14 271.127V50.173L1270.4 27.4986V272.574C1270.4 284.474 1273.61 293.319 1280.04 299.108C1286.47 304.897 1296.6 307.792 1310.43 307.792C1315.9 307.792 1320.72 307.47 1324.9 306.827C1329.4 305.862 1333.58 304.736 1337.44 303.45V350.728C1333.58 352.658 1328.12 354.105 1321.04 355.07C1313.97 356.357 1306.09 357 1297.41 357ZM1161.87 153.896V106.135H1337.44V153.896H1161.87Z" fill="white"/>
<path d="M1472.8 357C1446.75 357 1423.76 351.532 1403.83 340.597C1384.21 329.662 1368.94 314.546 1358 295.249C1347.07 275.63 1341.6 253.277 1341.6 228.191C1341.6 203.104 1347.07 181.073 1358 162.097C1368.94 143.122 1384.21 128.327 1403.83 117.714C1423.76 106.778 1446.75 101.311 1472.8 101.311C1499.17 101.311 1522.16 106.778 1541.78 117.714C1561.39 128.327 1576.67 143.122 1587.6 162.097C1598.53 181.073 1604 203.104 1604 228.191C1604 253.277 1598.37 275.63 1587.12 295.249C1576.18 314.546 1560.91 329.662 1541.29 340.597C1521.68 351.532 1498.85 357 1472.8 357ZM1472.8 308.274C1485.66 308.274 1497.24 305.058 1507.53 298.626C1517.82 291.872 1525.86 282.545 1531.65 270.645C1537.44 258.423 1540.33 244.111 1540.33 227.708C1540.33 203.586 1533.9 184.611 1521.04 170.781C1508.5 156.951 1492.42 150.036 1472.8 150.036C1453.19 150.036 1436.95 156.951 1424.08 170.781C1411.22 184.611 1404.79 203.586 1404.79 227.708C1404.79 244.111 1407.68 258.423 1413.47 270.645C1419.58 282.545 1427.62 291.872 1437.59 298.626C1447.88 305.058 1459.62 308.274 1472.8 308.274Z" fill="white"/>
</g>
<defs>
<clipPath id="clip0_793_3514">
<rect width="1604" height="280" fill="white"/>
</clipPath>
</defs>
</svg>
